<?xml version="1.0" standalone="no"?>
<!DOCTYPE svg PUBLIC "-//W3C//DTD SVG 20010904//EN"
 "http://www.w3.org/TR/2001/REC-SVG-20010904/DTD/svg10.dtd">
<svg version="1.0" xmlns="http://www.w3.org/2000/svg"
 width="344.000000pt" height="86.000000pt" viewBox="0 0 344.000000 86.000000"
 preserveAspectRatio="xMidYMid meet">

<g transform="translate(0.000000,86.000000) scale(0.100000,-0.100000)"
fill="#000000" stroke="none">
<path d="M0 822 c0 -5 11 -14 25 -20 l25 -12 0 -340 0 -340 -25 -12 c-45 -20
-26 -28 70 -28 96 0 115 8 70 28 l-25 12 0 160 c0 88 4 160 9 160 5 0 13 -6
19 -13 13 -15 82 -286 82 -321 0 -25 2 -26 61 -26 33 0 59 3 57 8 -22 45 -32
75 -65 187 -27 97 -44 137 -64 158 -15 15 -23 27 -17 27 23 0 72 46 89 84 28
62 26 182 -4 227 -37 55 -76 69 -199 69 -60 0 -108 -4 -108 -8z m203 -30 c25
-27 40 -125 32 -203 -8 -81 -34 -129 -70 -129 l-25 0 0 163 c0 162 5 187 35
187 7 0 19 -8 28 -18z"/>
<path d="M340 823 c0 -4 9 -16 20 -28 10 -11 40 -67 64 -124 l45 -103 -49 -97
c-27 -54 -56 -101 -65 -105 -31 -12 -3 -26 51 -26 41 0 54 4 54 15 0 8 -7 15
-16 15 -21 0 -15 45 16 115 l23 50 33 -73 c36 -77 36 -92 3 -92 -10 0 -19 -7
-19 -15 0 -12 16 -15 85 -15 88 0 99 6 68 38 -10 9 -38 63 -62 119 l-44 103
43 95 c24 53 52 101 62 106 34 18 18 29 -42 29 -59 0 -79 -13 -40 -25 23 -7
22 -16 -14 -114 l-23 -63 -23 54 c-56 130 -54 118 -20 124 59 12 29 24 -60 24
-49 0 -90 -3 -90 -7z"/>
<path d="M793 810 c-84 -51 -131 -276 -104 -497 21 -169 57 -239 138 -263 35
-11 46 -10 86 8 l47 21 0 100 c0 56 -3 101 -7 101 -5 0 -23 -48 -41 -106 -30
-95 -35 -105 -55 -102 -51 7 -83 219 -74 473 7 168 16 229 39 252 31 31 61
-12 104 -149 10 -32 21 -58 26 -58 4 0 8 45 8 100 l0 100 -32 20 c-42 25 -94
25 -135 0z"/>
<path d="M1678 814 c-34 -18 -75 -86 -94 -156 -39 -138 -24 -414 27 -523 64
-135 194 -124 248 20 43 114 51 352 17 496 -33 143 -114 209 -198 163z m76
-54 c22 -57 34 -146 42 -310 9 -221 -15 -390 -56 -390 -18 0 -40 47 -55 116
-20 90 -31 416 -17 512 17 121 54 151 86 72z"/>
<path d="M2280 812 c-74 -37 -119 -181 -119 -382 0 -180 31 -302 93 -359 34
-31 110 -40 154 -17 l32 17 0 104 c0 58 -2 105 -4 105 -3 0 -18 -44 -35 -99
-33 -105 -51 -132 -75 -111 -44 36 -71 241 -63 470 7 206 27 281 70 265 15 -6
55 -89 77 -160 22 -73 30 -62 30 43 l0 102 -32 20 c-41 25 -82 25 -128 2z"/>
<path d="M1165 798 c4 -13 38 -165 76 -338 38 -173 76 -348 85 -388 8 -41 18
-72 20 -69 2 2 40 177 85 388 44 211 84 388 89 393 26 26 9 36 -55 36 -51 0
-65 -3 -65 -15 0 -9 9 -15 24 -15 46 0 46 -13 4 -260 -21 -129 -42 -242 -45
-250 -3 -8 -29 100 -58 240 -30 140 -50 258 -47 262 4 3 18 8 32 10 55 7 15
23 -66 26 -86 3 -87 3 -79 -20z"/>
<path d="M1937 813 c-13 -12 -7 -22 16 -25 l22 -3 3 -351 2 -352 -25 -6 c-56
-14 -21 -26 75 -26 96 0 131 12 75 26 l-25 6 0 349 0 349 26 10 c14 6 22 14
19 20 -7 11 -178 14 -188 3z"/>
<path d="M2480 806 c0 -7 9 -16 20 -19 20 -5 20 -14 20 -355 0 -341 0 -350
-20 -355 -11 -3 -20 -10 -20 -16 0 -7 41 -11 123 -11 67 0 132 -3 145 -6 22
-6 22 -6 21 117 l-1 124 -32 -100 -32 -100 -42 -3 -42 -3 0 170 0 171 55 0
c42 0 55 3 55 15 0 12 -13 15 -55 15 l-55 0 0 170 0 170 40 0 39 0 31 -100
c18 -55 33 -100 36 -100 2 0 4 52 4 115 l0 115 -145 0 c-117 0 -145 -3 -145
-14z"/>
<path d="M2830 705 c0 -87 2 -95 19 -95 11 0 23 5 26 10 3 6 -1 10 -9 10 -13
0 -16 14 -16 75 0 61 3 75 16 75 8 0 12 5 9 10 -3 6 -15 10 -26 10 -17 0 -19
-8 -19 -95z"/>
<path d="M2897 793 c-4 -3 -7 -37 -7 -75 l0 -68 44 0 c50 0 82 22 70 49 -4 9
-7 31 -6 49 2 26 -3 34 -24 42 -29 11 -68 13 -77 3z m71 -25 c15 -15 -3 -38
-29 -38 -14 0 -19 7 -19 25 0 27 26 35 48 13z m1 -57 c21 -13 5 -41 -24 -41
-20 0 -25 5 -25 25 0 26 22 33 49 16z"/>
<path d="M3030 726 l0 -76 50 0 c28 0 50 5 50 10 0 6 -18 10 -40 10 -33 0 -40
3 -40 20 0 16 7 20 34 20 19 0 38 5 41 10 4 6 -10 10 -34 10 -34 0 -41 3 -41
19 0 16 8 20 38 23 53 4 46 22 -10 26 l-48 3 0 -75z"/>
<path d="M3140 785 c0 -8 9 -15 20 -15 18 0 20 -7 20 -60 0 -47 3 -60 15 -60
12 0 15 13 15 60 0 53 2 60 20 60 11 0 20 7 20 15 0 12 -13 15 -55 15 -42 0
-55 -3 -55 -15z"/>
<path d="M3267 729 c-27 -71 -28 -101 -3 -66 17 22 76 24 76 2 0 -8 7 -15 15
-15 8 0 15 3 14 8 -2 21 -56 136 -65 139 -6 2 -23 -29 -37 -68z m41 -27 c-27
-5 -30 1 -17 34 l11 29 13 -30 c12 -27 12 -30 -7 -33z"/>
<path d="M3375 790 c-3 -5 1 -10 9 -10 13 0 16 -14 16 -75 0 -61 -3 -75 -16
-75 -8 0 -12 -4 -9 -10 3 -5 15 -10 26 -10 17 0 19 8 19 95 0 87 -2 95 -19 95
-11 0 -23 -4 -26 -10z"/>
</g>
</svg>
